<!DOCTYPE svg PUBLIC "-//W3C//DTD SVG 1.1//EN" "http://www.w3.org/Graphics/SVG/1.1/DTD/svg11.dtd">
<!-- Uploaded to: SVG Repo, www.svgrepo.com, Transformed by: SVG Repo Mixer Tools -->
<svg version="1.1" id="Layer_1" xmlns="http://www.w3.org/2000/svg" xmlns:xlink="http://www.w3.org/1999/xlink" viewBox="0 0 504.123 504.123" xml:space="preserve" width="800px" height="800px" fill="#000000">
<g id="SVGRepo_bgCarrier" stroke-width="0"/>
<g id="SVGRepo_tracerCarrier" stroke-linecap="round" stroke-linejoin="round"/>
<g id="SVGRepo_iconCarrier"> <circle style="fill:#8b0000;" cx="252.062" cy="252.062" r="252.062"/> <rect x="237.883" y="136.665" style="fill:#ffffff;" width="28.357" height="248.123"/> <g> <rect x="192.197" y="361.157" style="fill:#ffffff;" width="119.335" height="26.388"/> <polygon style="fill:#ffffff;" points="120.517,129.969 64.591,269.785 71.286,272.935 116.578,159.902 116.578,271.36 124.455,271.36 124.455,159.902 169.354,272.935 176.443,269.785 "/> </g> <path style="fill:#ffffff;" d="M64.591,271.754c0,31.508,25.206,56.714,55.926,56.714s55.926-25.6,55.926-56.714v-1.969H64.591 V271.754z"/> <polygon style="fill:#ffffff;" points="383.606,129.969 439.532,269.785 432.837,272.935 387.545,159.902 387.545,271.36 379.668,271.36 379.668,159.902 334.769,272.935 327.68,269.785 "/> <path style="fill:#ffffff;" d="M439.532,271.754c0,31.508-25.206,56.714-55.926,56.714s-55.926-25.6-55.926-56.714v-1.969h111.852 V271.754z"/> <rect x="169.748" y="383.212" style="fill:#ffffff;" width="164.628" height="26.388"/> <path style="fill:#ffffff;" d="M376.517,122.092c-18.117-1.969-93.342-49.625-124.455-14.966 c-31.114-35.052-106.338,12.997-124.455,14.572c-18.117,1.969-27.963-14.572-27.963-14.572l10.634,29.538h141.785H394.24 l10.634-29.538C404.874,107.126,395.028,123.668,376.517,122.092z"/> </g>
</svg>